# Blender v2.80 (sub 75) OBJ File: ''
# www.blender.org
o Cone
v 0.000000 -0.500000 -1.000654
v 0.000000 0.000000 -0.000654
v -0.097545 -0.490393 -1.000654
v -0.191342 -0.461940 -1.000654
v -0.277785 -0.415735 -1.000654
v -0.353553 -0.353553 -1.000654
v -0.415735 -0.277785 -1.000654
v -0.461940 -0.191342 -1.000654
v -0.490393 -0.097545 -1.000654
v -0.500000 0.000000 -1.000654
v -0.490393 0.097545 -1.000654
v -0.461940 0.191342 -1.000654
v -0.415735 0.277785 -1.000654
v -0.353553 0.353553 -1.000654
v -0.277785 0.415735 -1.000654
v -0.191342 0.461940 -1.000654
v -0.097545 0.490393 -1.000654
v 0.000000 0.500000 -1.000654
v 0.097545 0.490393 -1.000654
v 0.191342 0.461940 -1.000654
v 0.277785 0.415735 -1.000654
v 0.353554 0.353553 -1.000654
v 0.415735 0.277785 -1.000654
v 0.461940 0.191341 -1.000654
v 0.490393 0.097545 -1.000654
v 0.500000 0.000000 -1.000654
v 0.490393 -0.097546 -1.000654
v 0.461940 -0.191342 -1.000654
v 0.415734 -0.277786 -1.000654
v 0.353553 -0.353554 -1.000654
v 0.277785 -0.415735 -1.000654
v 0.191341 -0.461940 -1.000654
v 0.097544 -0.490393 -1.000654
vt 0.250000 0.490000
vt 0.250000 0.250000
vt 0.296822 0.485388
vt 0.341844 0.471731
vt 0.383337 0.449553
vt 0.419706 0.419706
vt 0.449553 0.383337
vt 0.471731 0.341844
vt 0.485388 0.296822
vt 0.490000 0.250000
vt 0.485388 0.203178
vt 0.471731 0.158156
vt 0.449553 0.116663
vt 0.419706 0.080294
vt 0.383337 0.050447
vt 0.341844 0.028269
vt 0.296822 0.014612
vt 0.250000 0.010000
vt 0.203178 0.014612
vt 0.158156 0.028269
vt 0.116663 0.050447
vt 0.080294 0.080294
vt 0.050447 0.116663
vt 0.028269 0.158156
vt 0.014611 0.203179
vt 0.010000 0.250000
vt 0.014612 0.296822
vt 0.028269 0.341844
vt 0.050447 0.383337
vt 0.080295 0.419706
vt 0.116663 0.449553
vt 0.158156 0.471731
vt 0.203179 0.485389
vt 0.750000 0.490000
vt 0.796822 0.485388
vt 0.841844 0.471731
vt 0.883337 0.449553
vt 0.919706 0.419706
vt 0.949553 0.383337
vt 0.971731 0.341844
vt 0.985388 0.296822
vt 0.990000 0.250000
vt 0.985388 0.203178
vt 0.971731 0.158156
vt 0.949553 0.116663
vt 0.919706 0.080294
vt 0.883337 0.050447
vt 0.841844 0.028269
vt 0.796822 0.014612
vt 0.750000 0.010000
vt 0.703178 0.014612
vt 0.658156 0.028269
vt 0.616663 0.050447
vt 0.580294 0.080294
vt 0.550447 0.116663
vt 0.528269 0.158156
vt 0.514611 0.203179
vt 0.510000 0.250000
vt 0.514612 0.296822
vt 0.528269 0.341844
vt 0.550447 0.383337
vt 0.580295 0.419706
vt 0.616663 0.449553
vt 0.658156 0.471731
vt 0.703179 0.485389
vn 0.0000 -0.8641 -0.5033
vn -0.0000 0.0000 1.0000
vn -0.1686 -0.8475 -0.5033
vn -0.3307 -0.7983 -0.5033
vn -0.4801 -0.7185 -0.5033
vn -0.6110 -0.6110 -0.5033
vn -0.7185 -0.4801 -0.5033
vn -0.7983 -0.3307 -0.5033
vn -0.8475 -0.1686 -0.5033
vn -0.8641 0.0000 -0.5033
vn -0.8475 0.1686 -0.5033
vn -0.7983 0.3307 -0.5033
vn -0.7185 0.4801 -0.5033
vn -0.6110 0.6110 -0.5033
vn -0.4801 0.7185 -0.5033
vn -0.3307 0.7983 -0.5033
vn -0.1686 0.8475 -0.5033
vn 0.0000 0.8641 -0.5033
vn 0.1686 0.8475 -0.5033
vn 0.3307 0.7983 -0.5033
vn 0.4801 0.7185 -0.5033
vn 0.6110 0.6110 -0.5033
vn 0.7185 0.4801 -0.5033
vn 0.7983 0.3307 -0.5033
vn 0.8475 0.1686 -0.5033
vn 0.8641 0.0000 -0.5033
vn 0.8475 -0.1686 -0.5033
vn 0.7983 -0.3307 -0.5033
vn 0.7185 -0.4801 -0.5033
vn 0.6110 -0.6110 -0.5033
vn 0.4801 -0.7185 -0.5033
vn 0.3307 -0.7983 -0.5033
vn 0.1686 -0.8475 -0.5033
s 1
f 1/1/1 2/2/2 3/3/3
f 3/3/3 2/2/2 4/4/4
f 4/4/4 2/2/2 5/5/5
f 5/5/5 2/2/2 6/6/6
f 6/6/6 2/2/2 7/7/7
f 7/7/7 2/2/2 8/8/8
f 8/8/8 2/2/2 9/9/9
f 9/9/9 2/2/2 10/10/10
f 10/10/10 2/2/2 11/11/11
f 11/11/11 2/2/2 12/12/12
f 12/12/12 2/2/2 13/13/13
f 13/13/13 2/2/2 14/14/14
f 14/14/14 2/2/2 15/15/15
f 15/15/15 2/2/2 16/16/16
f 16/16/16 2/2/2 17/17/17
f 17/17/17 2/2/2 18/18/18
f 18/18/18 2/2/2 19/19/19
f 19/19/19 2/2/2 20/20/20
f 20/20/20 2/2/2 21/21/21
f 21/21/21 2/2/2 22/22/22
f 22/22/22 2/2/2 23/23/23
f 23/23/23 2/2/2 24/24/24
f 24/24/24 2/2/2 25/25/25
f 25/25/25 2/2/2 26/26/26
f 26/26/26 2/2/2 27/27/27
f 27/27/27 2/2/2 28/28/28
f 28/28/28 2/2/2 29/29/29
f 29/29/29 2/2/2 30/30/30
f 30/30/30 2/2/2 31/31/31
f 31/31/31 2/2/2 32/32/32
f 32/32/32 2/2/2 33/33/33
f 33/33/33 2/2/2 1/1/1
f 1/34/1 3/35/3 4/36/4 5/37/5 6/38/6 7/39/7 8/40/8 9/41/9 10/42/10 11/43/11 12/44/12 13/45/13 14/46/14 15/47/15 16/48/16 17/49/17 18/50/18 19/51/19 20/52/20 21/53/21 22/54/22 23/55/23 24/56/24 25/57/25 26/58/26 27/59/27 28/60/28 29/61/29 30/62/30 31/63/31 32/64/32 33/65/33
